<svg xmlns="http://www.w3.org/2000/svg" width="60" height="60"><g id="Symbols" fill="none" fill-rule="evenodd" stroke="none" stroke-width="1"><g id="Hardware-Logos"><g id="Group-9"><g id="Switch-Logo"><path id="Fill-1" fill="#E60012" d="M0 59.887h59.887V0H0z"/><path id="Fill-2" fill="#FFF" d="M42.465 42.275h-.733v-1.947h.733a.974.974 0 0 1 0 1.947Zm-.034-2.652h-1.389v3.358h1.389c.952 0 1.726-.753 1.726-1.68 0-.925-.774-1.678-1.726-1.678Zm-14.995-6.267h-3.907a4.696 4.696 0 0 1-3.342-1.384 4.694 4.694 0 0 1-1.385-3.343v-13.1c0-1.264.492-2.45 1.384-3.343a4.695 4.695 0 0 1 3.343-1.384h3.907v22.554Zm1.97-24.722H23.53a6.895 6.895 0 0 0-6.895 6.895v13.1a6.895 6.895 0 0 0 6.895 6.895h5.878c.109 0 .197-.088.197-.197V8.831a.197.197 0 0 0-.197-.197Zm8.796 34.347v-3.358h-.682v2.205l-1.651-2.205h-.679v3.358h.68v-2.246l1.669 2.246h.663Zm-8.115 3.061h2.024v4.992h1.363v-4.992h1.98v-1.344h-5.367v1.344Zm9.772-.142c.715 0 1.382.382 1.739.983l1.03-.896a3.366 3.366 0 0 0-2.806-1.496 3.386 3.386 0 0 0-3.382 3.382 3.386 3.386 0 0 0 3.382 3.381 3.366 3.366 0 0 0 2.807-1.496l-1.031-.896a2.032 2.032 0 0 1-1.74.983c-1.108 0-2.01-.885-2.01-1.972 0-1.088.902-1.973 2.01-1.973Zm11.764 4.314-.204.593-.204-.593h-.225v.81h.145v-.621l.212.614.002.008h.14l.003-.008.211-.614v.622h.145v-.81h-.225Zm-1.437.164h.266v.656h.158v-.656h.26v-.155h-.684v.155Zm-1.84-3.183h-2.959v-2.497h-1.31v6.336h1.31v-2.528h2.96v2.528h1.311v-6.336h-1.311v2.497Zm-.228-4.848a1.045 1.045 0 0 1 0-2.09 1.045 1.045 0 0 1 0 2.09Zm0-2.837a1.793 1.793 0 0 0 0 3.584 1.792 1.792 0 0 0 0-3.584Zm-15.71 2.849h-1.93v-.788h1.784v-.607h-1.785v-.725h1.93v-.616h-2.611v3.358l2.611-.001v-.621ZM20.82 16.7a2.528 2.528 0 1 0 5.057 0 2.528 2.528 0 0 0-5.057 0Zm-7.885 30.491-.039-.007c-.774-.135-1.443-.253-1.503-.707a.443.443 0 0 1 .116-.354c.214-.243.692-.367 1.422-.367.821 0 1.645.313 1.939.436l.45-1.096c-.319-.127-1.331-.488-2.453-.488-1.37 0-2.824.667-2.824 1.905 0 1.003.708 1.515 2.524 1.828 1.28.22 1.985.342 1.966.892-.012.303-.246.812-1.69.812-1.16 0-1.978-.42-2.263-.592l-.6 1.083c.32.168 1.393.67 2.772.67 2.016 0 3.082-.698 3.082-2.019 0-.941-.475-1.57-2.899-1.996Zm-1.988-6.457 1.668 2.246h.663v-3.358h-.682v2.205l-1.652-2.205h-.678v3.358h.681v-2.246Zm4.863 2.246h.747v-3.358h-.747v3.358Zm21.804-22.276a2.719 2.719 0 1 1 0 5.437 2.719 2.719 0 0 1 0-5.437Zm-5.123 14.82h4.139a6.895 6.895 0 0 0 6.895-6.896v-13.1a6.895 6.895 0 0 0-6.895-6.895h-4.16a.175.175 0 0 0-.176.175v26.518c0 .109.088.197.197.197Zm-9.536 13.77-1.342-4.597h-1.125l-1.335 4.58-1.218-4.58h-1.38l1.793 6.336h1.523l1.18-4.175 1.175 4.175h1.528l1.803-6.336h-1.379l-1.223 4.597Zm4.382-9.672h-2.844v.712h1.073v2.646h.723v-2.646h1.048v-.712Zm-7.566 1.112 1.667 2.246h.663v-3.358h-.681v2.205l-1.652-2.205h-.678v3.358h.68v-2.246Zm7.36 10.299h1.41v-6.336h-1.41v6.336Z"/></g></g></g></g></svg>