<svg xmlns="http://www.w3.org/2000/svg" width="71" height="21"><g id="Symbols" fill="none" fill-rule="evenodd" stroke="none" stroke-width="1"><g id="Hardware-Logos" transform="translate(-88 -19)"><g id="Group-9"><g id="Wii-U-Logo" transform="translate(88.5 19.5)"><path id="Fill-1" fill="#A6A9AB" d="m69.97.275-.427 1.398-.422-1.398H68.7v1.748h.267V.577l.429 1.446h.287l.434-1.446v1.446h.277V.275h-.424Zm-2.85 0v.258h.54v1.49h.292V.533h.54V.275H67.12Z"/><g id="Group-8" transform="translate(0 .033)"><g id="Group-4" fill="#A6A9AB"><path id="Fill-2" d="m22.672 1.328-3.507 13.726S16.488 4.751 16.053 3.29c-.436-1.463-1.335-2.104-2.607-2.104-1.271 0-2.17.641-2.605 2.104-.437 1.462-3.116 11.765-3.116 11.765L4.22 1.328H0s4.052 14.645 4.603 16.34c.43 1.324 1.444 2.406 2.95 2.406 1.722 0 2.527-1.253 2.9-2.406.368-1.144 2.993-10.819 2.993-10.819s2.625 9.675 2.995 10.819c.37 1.153 1.177 2.406 2.897 2.406 1.506 0 2.521-1.082 2.951-2.406.55-1.695 4.603-16.34 4.603-16.34h-4.22Zm14.475 18.605h3.996V7.015h-3.996v12.918Zm-.386-17.432c0 1.244 1.05 2.254 2.34 2.254 1.343 0 2.395-.99 2.395-2.254 0-1.268-1.052-2.259-2.395-2.259-1.29 0-2.34 1.013-2.34 2.259Zm-7.735 17.432h3.994V7.015h-3.994v12.918ZM30.977.243c1.343 0 2.396.99 2.396 2.258 0 1.263-1.053 2.254-2.396 2.254-1.291 0-2.341-1.01-2.341-2.254 0-1.246 1.05-2.259 2.341-2.259Z"/></g><g id="Group-7" fill="#00AED3" transform="translate(45.963)"><path id="Fill-5" d="M17.406.242h-2.242v6.946c0 3.351-1.936 5.16-5.054 5.16-3.116 0-5.053-1.809-5.053-5.16V.242H2.815C1.177.242.187 1.232.187 2.87v8.493c0 2.463 1.293 3.754 3.758 3.754h12.332c2.465 0 3.758-1.29 3.758-3.754V2.869c0-1.637-.991-2.627-2.629-2.627m-7.296 9.883c1.495 0 2.623-1.163 2.623-2.992V.243H7.489v6.89c0 1.83 1.128 2.992 2.621 2.992"/></g></g></g></g></g></g></svg>